<mxfile host="app.diagrams.net" modified="2024-01-26T00:27:16.432Z" agent="Mozilla/5.0 (Windows NT 10.0; Win64; x64) AppleWebKit/537.36 (KHTML, like Gecko) Chrome/121.0.0.0 Safari/537.36" version="23.0.1" etag="HWEHgjRSeTmKT9aizPVB" type="github">
  <diagram name="PÃ¡gina-1" id="_7mFdQsxWDLfKX1LDUqQ">
    <mxGraphModel>
      <root>
        <mxCell id="0" />
        <mxCell id="1" parent="0" />
      </root>
    </mxGraphModel>
  </diagram>
</mxfile>
